<svg id="Layer_1" data-name="Layer 1" xmlns="http://www.w3.org/2000/svg" viewBox="0 0 295.51 250.29"><defs><style>.cls-1{fill:#010101;}</style></defs><title>ape</title><g id="AzmW0B.tif"><path class="cls-1" d="M258.43,84c0-4.32,0-8.65,0-13,0-1,0-1.8,1.33-1.76,5.23.12,10.55-.62,15.68.42,11.5,2.33,18.94,9.72,22,20.76a58.41,58.41,0,0,1,.19,28.66c-2.66,11.47-13.74,20-25.49,20.21-3.82.09-7.65,0-11.47.07-1.62,0-1.93-.57-1.92-2q.07-13,0-26c0-1.66.5-2.13,2.13-2.08,4.24.1,8.48.11,12.72,0,3.65-.1,5.73-2.77,5-6.16a4.36,4.36,0,0,0-4.6-3.73c-4.23-.07-8.47-.12-12.71,0-1.92.07-2.62-.42-2.55-2.46.15-4.32,0-8.65,0-13Z" transform="translate(-3.76 -14.14)"/><path class="cls-1" d="M44.07,84.23c0,4.08-.16,8.17,0,12.24.13,2.51-.78,3.07-3.1,3-3.9-.19-7.82-.07-11.73,0-3.25,0-5.12,1.78-5.2,4.76s1.86,5.07,5.17,5.15c4.24.1,8.48.11,12.72,0,1.68-.05,2.11.5,2.1,2.12-.07,8.66,0,17.33,0,26,0,.86.28,2-1.21,1.92-6.12-.27-12.32.76-18.36-1A27.78,27.78,0,0,1,4.23,113.69c-.5-7.68-1-15.48.91-23.11A28.61,28.61,0,0,1,31.34,69.3c3.74-.14,7.49,0,11.23-.08,1.56,0,2,.5,2,2-.09,4.33,0,8.66,0,13Z" transform="translate(-3.76 -14.14)"/><path class="cls-1" d="M248.82,118.31c0,14.83-.24,29.66.06,44.48.41,20.4-13,35.56-28.53,39.59-1.33.34-1.56,1.15-1.55,2.38,0,5.83-.08,11.66,0,17.49.46,21-15.17,37-34.61,41.05a61.6,61.6,0,0,1-12.64,1.12c-14.14,0-28.28.06-42.42,0-13.15-.09-24.84-4.14-34.25-13.65A36.22,36.22,0,0,1,84,225.24c-.13-6.58-.08-13.16,0-19.74a2.34,2.34,0,0,0-2.06-2.75C66.52,198.4,55.15,184.12,54.08,168c-.07-1.16-.13-2.33-.13-3.49,0-30.15-.3-60.3.09-90.45.34-25.31,12.32-43.66,35.14-54.67,7.83-3.78,16.26-5.2,24.92-5.21,24.87,0,49.73-.08,74.6,0,28.09.12,51,17.73,58.21,44.58a62.3,62.3,0,0,1,1.92,16.32Q248.8,96.71,248.82,118.31Zm-42.39,61c1.32,0,2.46.16,2.24-1.87-1.08-9.83-2.87-19.43-8.3-28a14.16,14.16,0,0,1-2.17-5,4.13,4.13,0,0,1,3.7-5.17c10.75-1.33,16.82-8.13,16.84-18.91,0-8.66,0-17.33,0-26a32.62,32.62,0,0,0-.81-7.93c-3.47-14.17-16.58-22.38-30.33-19-11.17,2.79-19.17,12.57-20,24.56-.1,1.34-.08,2.35-2,2.34-9.49-.09-19-.07-28.45,0-1.44,0-1.9-.51-1.88-1.88a25.2,25.2,0,0,0-1.32-7.34C130.49,73.25,118.72,65.22,107,66.78,93.71,68.55,84.37,78.86,84.09,92.44c-.21,9.74-.15,19.49,0,29.23a17.6,17.6,0,0,0,16.38,17.59c3.26.32,4.88,2.56,4,5.72A12.52,12.52,0,0,1,103,148.4c-5.52,8.46-7.6,18-8.78,27.81-.28,2.35.12,3.13,2.71,3.12,18.13-.13,36.26-.07,54.39-.07Zm-110,10c-1.47,0-2.46,0-2.45,2,.11,11.41,0,22.82.11,34.22a25.29,25.29,0,0,0,7.76,18.12c7.69,7.65,17.27,10.57,27.87,10.61,14.05,0,28.1,0,42.15,0a48.56,48.56,0,0,0,10.41-1c13.69-2.93,27.17-13.85,26.55-31.72-.34-9.9-.12-19.82,0-29.72,0-2.11-.59-2.62-2.64-2.61-18.21.08-36.42.05-54.62.05Q124,189.34,96.41,189.32Zm54.73-57.67c-.39-.53-.76-1.08-1.14-1.63-2.69-3.89-6.15-6.12-11.12-5.75-3.23.24-6.49,0-9.73,0s-5.23,1.86-5.22,5,1.92,4.95,5.25,5c3.08.05,6.16.12,9.23,0a3.5,3.5,0,0,1,3.58,2,53.34,53.34,0,0,1,4.31,9.79,5,5,0,0,0,2.84,3.24c3.08,1.29,6.21-.23,7.44-3.75a46,46,0,0,1,4.29-9.52,3.33,3.33,0,0,1,3.25-1.78c3.24.12,6.48.09,9.73,0s5-1.95,5-5-1.79-4.91-5-5-6.34.21-9.48-.07c-5.37-.47-9.08,1.89-11.91,6.18-.3.46-.44,1.1-1.06,1.26C151.29,131.69,151.17,131.7,151.14,131.65ZM98.94,99.34a10,10,0,1,0,20-.22,10,10,0,0,0-20,.22Zm95-10a10,10,0,0,0-10.18,10,10.18,10.18,0,0,0,10,10,10,10,0,0,0,10-10A9.87,9.87,0,0,0,194,89.31Z" transform="translate(-3.76 -14.14)"/></g></svg>